<?xml version="1.0" encoding="UTF-8" standalone="no"?>
<svg width="190px" height="329px" viewBox="0 0 190 329" version="1.1" xmlns="http://www.w3.org/2000/svg" xmlns:xlink="http://www.w3.org/1999/xlink">
    <!-- Generator: Sketch 41.2 (35397) - http://www.bohemiancoding.com/sketch -->
    <title>Group</title>
    <desc>Created with Sketch.</desc>
    <defs></defs>
    <g id="Page-1" stroke="none" stroke-width="1" fill="none" fill-rule="evenodd">
        <g id="A4" transform="translate(-205.000000, -66.000000)">
            <g id="Group" transform="translate(205.000000, 66.000000)">
                <path d="M83.7593049,134.62473 L55.4248633,83.3420641 L55.2619455,82.8150591 C51.6141,71.0150465 55.8443663,62.0308286 65.0395704,59.132496 C72.3350336,56.8329625 81.7965653,58.795704 88.2627777,63.9217323 L88.5897518,64.1809378 L88.8703828,64.5024142 C91.1145485,67.0732142 93.5401796,70.2228306 96.137055,73.9173348 L109.367037,135.024364 C104.675384,134.349338 99.8784882,134 95,134 C91.1998673,134 87.4492428,134.211969 83.7593049,134.62473 L83.7593049,134.62473 Z" id="Combined-Shape" fill="#537F26"></path>
                <path d="M117.290271,136.493426 L94.5,43.6026408 C92.8369141,29.7011719 112.53764,16.9959498 128.005263,31.1340241 C131.694847,38.1039991 135.440072,48.2547439 139.068734,60.0215608 C139.063388,85.3723254 139.325,115.846626 139.572255,138.90371 C139.572255,140.452136 139.622237,143.488711 139.633413,144.488822 C138.715269,144.030114 136.73792,142.972184 134.607157,142.15024 C129.075483,139.761677 123.285319,137.858203 117.290271,136.493426 L117.290271,136.493426 Z" id="Combined-Shape" fill="#537F26"></path>
                <path d="M95,179 C125.375661,179 150,203.624339 150,234 C150,264.375661 125.375661,289 95,289 C65.102662,289 40.7769413,265.14507 40.0182443,235.430618 C35.2088338,233.329469 27.6048788,229.899606 25.8178784,229.181445 C20.9155298,227.211284 17.5588799,226.467333 14.5338887,226.739256 C10.2114109,227.127812 5.72426402,229.785725 0.0188298722,235.910598 C1.03645024,287.495735 43.1713048,329 95,329 C147.467051,329 190,286.467051 190,234.000145 C189.999973,233.488211 189.999634,232.651788 189.998639,231.421647 C189.997016,229.412202 189.994145,227.091662 189.989724,224.48555 C189.977175,217.088676 189.954793,208.855751 189.920155,199.990998 C189.821526,174.749783 189.644812,149.430923 189.370666,125.669193 C189.018813,95.1721824 188.530908,69.4958767 187.88818,50.2859169 C187.52435,39.4116988 187.11512,30.7625741 186.660231,24.5629487 C186.424537,21.3507074 186.178202,18.8225775 185.926667,17.031432 C185.77244,15.9332056 185.568792,15.0817609 185.907846,15.564688 L185.287436,14.3625127 C178.606558,-4.48062856 147.610842,-4.53386684 144.945844,13.4255756 C143.780125,21.2813608 143.849627,74.3245218 144.633101,144.43295 L144.724612,152.621684 L137.398765,148.961668 C124.346962,142.440946 109.924627,139 95,139 C63.1713694,139 34.029904,154.767359 16.4562842,180.542117 C15.3937607,195.993673 24.3462122,208.648359 42.0758666,218.977053 C48.6570327,195.706575 70.0558399,179 95,179 Z" id="Path" fill="#FFFFFF"></path>
            </g>
        </g>
    </g>
</svg>